<svg width="20" height="16" viewBox="0 0 20 16" fill="none" xmlns="http://www.w3.org/2000/svg">
<path d="M1 1.5H0.5V2H1V1.5ZM19 1.5V2H19.5V1.5H19ZM18.5 1V0.5H18V1H18.5ZM17 15.5L17 16L17 15.5ZM1.5 1H2V0.5H1.5V1ZM10 10L9.64645 10.3536C9.84171 10.5488 10.1583 10.5488 10.3536 10.3536L10 10ZM1 1H1.5V0.5H1H0.5V1H1ZM1 0.5V0C0.734783 0 0.480429 0.105357 0.292893 0.292893L0.646447 0.646447L1 1L1 1V0.5ZM0.646447 0.646447L0.292893 0.292893C0.105357 0.480429 0 0.734783 0 1H0.5H1L1 1L0.646447 0.646447ZM0.5 1V1.5H1V1V0.5H0.5V1ZM19 1V1.5H19.5V1V0.5H19V1ZM19.5 1H20C20 0.734784 19.8946 0.48043 19.7071 0.292893L19.3536 0.646447L19 1L19 1H19.5ZM19.3536 0.646447L19.7071 0.292893C19.5196 0.105357 19.2652 0 19 0V0.5V1L19 1L19.3536 0.646447ZM19 0.5H18.5V1H19H19.5V0.5H19ZM1 1.5V2H19V1.5V1H1V1.5ZM19 1.5H19.5V0.5H19H18.5V1.5H19ZM19 0.5V0H1V0.5V1H19V0.5ZM1 0.5H0.5V1.5H1H1.5V0.5H1ZM18.5 1H18V13H18.5H19V1H18.5ZM18.5 13V13.5H19.5V13V12.5H18.5V13ZM19.5 13H20V1H19.5H19V13H19.5ZM19.5 1V0.5H18.5V1V1.5H19.5V1ZM17 14.5V14H3V14.5V15H17V14.5ZM3 14.5H2.5V15.5H3H3.5V14.5H3ZM3 15.5V16H17V15.5V15H3V15.5ZM17 15.5H17.5V14.5H17H16.5V15.5H17ZM1.5 13H2V1H1.5H1V13H1.5ZM1.5 1V0.5H0.5V1V1.5H1.5V1ZM0.5 1H0V13H0.5H1V1H0.5ZM0.5 13V13.5H1.5V13V12.5H0.5V13ZM3 14.5V14C2.73478 14 2.48043 13.8946 2.29289 13.7071L1.93934 14.0607L1.58579 14.4142C1.96086 14.7893 2.46957 15 3 15V14.5ZM1.93934 14.0607L2.29289 13.7071C2.10536 13.5196 2 13.2652 2 13H1.5H1C1 13.5304 1.21071 14.0391 1.58579 14.4142L1.93934 14.0607ZM0.5 13H0C0 13.7956 0.316071 14.5587 0.87868 15.1213L1.23223 14.7678L1.58579 14.4142C1.21071 14.0391 1 13.5304 1 13H0.5ZM1.23223 14.7678L0.87868 15.1213C1.44129 15.6839 2.20435 16 3 16V15.5V15C2.46957 15 1.96086 14.7893 1.58579 14.4142L1.23223 14.7678ZM18.5 13H18C18 13.2652 17.8946 13.5196 17.7071 13.7071L18.0607 14.0607L18.4142 14.4142C18.7893 14.0391 19 13.5304 19 13H18.5ZM18.0607 14.0607L17.7071 13.7071C17.5196 13.8946 17.2652 14 17 14V14.5V15C17.5304 15 18.0391 14.7893 18.4142 14.4142L18.0607 14.0607ZM17 15.5L17 16C17.7956 16 18.5587 15.6839 19.1213 15.1213L18.7678 14.7678L18.4142 14.4142C18.0391 14.7893 17.5304 15 17 15L17 15.5ZM18.7678 14.7678L19.1213 15.1213C19.6839 14.5587 20 13.7956 20 13H19.5H19C19 13.5304 18.7893 14.0391 18.4142 14.4142L18.7678 14.7678ZM1 1L0.646447 1.35355L9.64645 10.3536L10 10L10.3536 9.64645L1.35355 0.646447L1 1ZM10 10L10.3536 10.3536L19.3536 1.35355L19 1L18.6464 0.646447L9.64645 9.64645L10 10Z" fill="#222721"/>
</svg>
