<svg width="87" height="32" viewBox="0 0 87 32" fill="none" xmlns="http://www.w3.org/2000/svg">
<path d="M15.2223 18.9963V16.5113C15.2223 15.6216 15.4887 15.1589 16.0119 14.3854C16.6497 13.4406 16.9905 12.3649 16.9998 11.2675C17.0091 10.1701 16.6865 9.09015 16.0647 8.13711C15.4429 7.18407 14.5441 6.39189 13.4595 5.84094C12.3748 5.28998 11.1429 4.99986 9.88873 5C8.00308 5.00019 6.1947 5.6556 4.86119 6.82215C3.52769 7.98869 2.77822 9.57087 2.77759 11.2208C2.77759 11.6268 2.77759 11.8298 2.75839 11.9432C2.71199 12.2148 2.56639 12.4486 2.42479 12.6908L1 15.1085L2.11999 15.5985C2.44399 15.7399 2.60639 15.8106 2.71919 15.9415C2.83199 16.0724 2.86399 16.2208 2.92719 16.5155L2.93359 16.5449C3.07998 17.2225 3.24078 17.9701 3.69358 18.4419C3.85358 18.6078 4.05198 18.7429 4.27518 18.8388C4.64397 18.9963 5.09757 18.9963 6.00476 18.9963C6.42476 18.9963 6.84556 19.0047 7.26555 18.9963C8.25995 18.9746 8.99994 18.2424 8.99994 17.3933M7.08956 10.9723C7.43035 10.9723 7.74155 10.8589 7.97755 10.6734M7.08956 10.9723C7.08956 11.7745 7.62075 12.5361 8.64314 12.5361C9.66554 12.5361 10.1967 13.2977 10.1967 14.0998M7.08956 10.9723C5.36957 10.9723 5.36957 8.62664 7.08956 8.62664C7.24635 8.62711 7.39489 8.64927 7.53515 8.69314C7.45115 6.94457 10.3319 6.46998 10.9847 8.10795M10.9847 8.10795C10.5087 8.38864 10.1967 8.86604 10.1967 9.40783M10.9847 8.10795C12.4663 7.23296 14.4407 8.80304 13.5015 10.203C15.0775 10.4095 14.9095 12.5361 13.3039 12.5361C13.0898 12.536 12.8789 12.4906 12.6892 12.4039C12.4995 12.3171 12.3366 12.1915 12.2143 12.0377" stroke="#222721" stroke-width="1.5" stroke-linecap="round" stroke-linejoin="round"/>
<path d="M31.319 19H30.129L23.55 9.004V19H22.36V7.117H23.55L30.129 17.096V7.117H31.319V19ZM36.2243 7.117V19H35.0343V7.117H36.2243ZM49.3571 7.117L44.8521 19H43.4921L38.9871 7.117H40.2791L44.1721 17.708L48.0991 7.117H49.3571ZM57.5031 19.119C56.4038 19.119 55.4065 18.864 54.5111 18.354C53.6158 17.8327 52.9075 17.113 52.3861 16.195C51.8761 15.2657 51.6211 14.2173 51.6211 13.05C51.6211 11.8827 51.8761 10.84 52.3861 9.922C52.9075 8.99267 53.6158 8.273 54.5111 7.763C55.4065 7.24167 56.4038 6.981 57.5031 6.981C58.6138 6.981 59.6168 7.24167 60.5121 7.763C61.4075 8.273 62.1101 8.99267 62.6201 9.922C63.1301 10.84 63.3851 11.8827 63.3851 13.05C63.3851 14.2173 63.1301 15.2657 62.6201 16.195C62.1101 17.113 61.4075 17.8327 60.5121 18.354C59.6168 18.864 58.6138 19.119 57.5031 19.119ZM57.5031 18.082C58.3871 18.082 59.1805 17.878 59.8831 17.47C60.5858 17.062 61.1411 16.4783 61.5491 15.719C61.9571 14.9483 62.1611 14.0587 62.1611 13.05C62.1611 12.0413 61.9571 11.1573 61.5491 10.398C61.1411 9.63867 60.5858 9.055 59.8831 8.647C59.1805 8.239 58.3871 8.035 57.5031 8.035C56.6191 8.035 55.8258 8.239 55.1231 8.647C54.4205 9.055 53.8651 9.63867 53.4571 10.398C53.0491 11.1573 52.8451 12.0413 52.8451 13.05C52.8451 14.0587 53.0491 14.9483 53.4571 15.719C53.8651 16.4783 54.4205 17.062 55.1231 17.47C55.8258 17.878 56.6191 18.082 57.5031 18.082ZM70.1866 19.119C69.4046 19.119 68.7132 18.983 68.1126 18.711C67.5232 18.439 67.0586 18.0593 66.7186 17.572C66.3786 17.0847 66.1972 16.5407 66.1746 15.94H67.4326C67.4892 16.518 67.7442 17.028 68.1976 17.47C68.6509 17.9007 69.3139 18.116 70.1866 18.116C70.9912 18.116 71.6259 17.912 72.0906 17.504C72.5666 17.0847 72.8046 16.5577 72.8046 15.923C72.8046 15.413 72.6742 15.005 72.4136 14.699C72.1529 14.3817 71.8299 14.1493 71.4446 14.002C71.0592 13.8433 70.5266 13.6733 69.8466 13.492C69.0532 13.2767 68.4242 13.067 67.9596 12.863C67.4949 12.659 67.0982 12.3417 66.7696 11.911C66.4409 11.4803 66.2766 10.8967 66.2766 10.16C66.2766 9.548 66.4352 9.004 66.7526 8.528C67.0699 8.04067 67.5176 7.661 68.0956 7.389C68.6736 7.117 69.3366 6.981 70.0846 6.981C71.1839 6.981 72.0679 7.253 72.7366 7.797C73.4166 8.32967 73.8076 9.021 73.9096 9.871H72.6176C72.5382 9.38367 72.2719 8.953 71.8186 8.579C71.3652 8.19367 70.7532 8.001 69.9826 8.001C69.2686 8.001 68.6736 8.19367 68.1976 8.579C67.7216 8.953 67.4836 9.46867 67.4836 10.126C67.4836 10.6247 67.6139 11.027 67.8746 11.333C68.1352 11.639 68.4582 11.8713 68.8436 12.03C69.2402 12.1887 69.7729 12.3587 70.4416 12.54C71.2122 12.7553 71.8356 12.9707 72.3116 13.186C72.7876 13.39 73.1899 13.7073 73.5186 14.138C73.8472 14.5687 74.0116 15.1467 74.0116 15.872C74.0116 16.4273 73.8642 16.9543 73.5696 17.453C73.2749 17.9517 72.8386 18.354 72.2606 18.66C71.6826 18.966 70.9912 19.119 70.1866 19.119Z" fill="#222721"/>
<path d="M2.512 22.727V29H1.693V22.727H2.512ZM5.68084 23.978C6.28084 23.978 6.76684 24.161 7.13884 24.527C7.51084 24.887 7.69684 25.409 7.69684 26.093V29H6.88684V26.21C6.88684 25.718 6.76384 25.343 6.51784 25.085C6.27184 24.821 5.93584 24.689 5.50984 24.689C5.07784 24.689 4.73284 24.824 4.47484 25.094C4.22284 25.364 4.09684 25.757 4.09684 26.273V29H3.27784V24.068H4.09684V24.77C4.25884 24.518 4.47784 24.323 4.75384 24.185C5.03584 24.047 5.34484 23.978 5.68084 23.978ZM10.1507 29.081C9.77268 29.081 9.43368 29.018 9.13368 28.892C8.83368 28.76 8.59668 28.58 8.42268 28.352C8.24868 28.118 8.15268 27.851 8.13468 27.551H8.98068C9.00468 27.797 9.11868 27.998 9.32268 28.154C9.53268 28.31 9.80568 28.388 10.1417 28.388C10.4537 28.388 10.6997 28.319 10.8797 28.181C11.0597 28.043 11.1497 27.869 11.1497 27.659C11.1497 27.443 11.0537 27.284 10.8617 27.182C10.6697 27.074 10.3727 26.969 9.97068 26.867C9.60468 26.771 9.30468 26.675 9.07068 26.579C8.84268 26.477 8.64468 26.33 8.47668 26.138C8.31468 25.94 8.23368 25.682 8.23368 25.364C8.23368 25.112 8.30868 24.881 8.45868 24.671C8.60868 24.461 8.82168 24.296 9.09768 24.176C9.37368 24.05 9.68868 23.987 10.0427 23.987C10.5887 23.987 11.0297 24.125 11.3657 24.401C11.7017 24.677 11.8817 25.055 11.9057 25.535H11.0867C11.0687 25.277 10.9637 25.07 10.7717 24.914C10.5857 24.758 10.3337 24.68 10.0157 24.68C9.72168 24.68 9.48768 24.743 9.31368 24.869C9.13968 24.995 9.05268 25.16 9.05268 25.364C9.05268 25.526 9.10368 25.661 9.20568 25.769C9.31368 25.871 9.44568 25.955 9.60168 26.021C9.76368 26.081 9.98568 26.15 10.2677 26.228C10.6217 26.324 10.9097 26.42 11.1317 26.516C11.3537 26.606 11.5427 26.744 11.6987 26.93C11.8607 27.116 11.9447 27.359 11.9507 27.659C11.9507 27.929 11.8757 28.172 11.7257 28.388C11.5757 28.604 11.3627 28.775 11.0867 28.901C10.8167 29.021 10.5047 29.081 10.1507 29.081ZM13.4758 24.743V27.65C13.4758 27.89 13.5268 28.061 13.6288 28.163C13.7308 28.259 13.9078 28.307 14.1598 28.307H14.7628V29H14.0248C13.5688 29 13.2268 28.895 12.9988 28.685C12.7708 28.475 12.6568 28.13 12.6568 27.65V24.743H12.0178V24.068H12.6568V22.826H13.4758V24.068H14.7628V24.743H13.4758ZM15.5481 23.267C15.3921 23.267 15.2601 23.213 15.1521 23.105C15.0441 22.997 14.9901 22.865 14.9901 22.709C14.9901 22.553 15.0441 22.421 15.1521 22.313C15.2601 22.205 15.3921 22.151 15.5481 22.151C15.6981 22.151 15.8241 22.205 15.9261 22.313C16.0341 22.421 16.0881 22.553 16.0881 22.709C16.0881 22.865 16.0341 22.997 15.9261 23.105C15.8241 23.213 15.6981 23.267 15.5481 23.267ZM15.9441 24.068V29H15.1251V24.068H15.9441ZM17.709 24.743V27.65C17.709 27.89 17.76 28.061 17.862 28.163C17.964 28.259 18.141 28.307 18.393 28.307H18.996V29H18.258C17.802 29 17.46 28.895 17.232 28.685C17.004 28.475 16.89 28.13 16.89 27.65V24.743H16.251V24.068H16.89V22.826H17.709V24.068H18.996V24.743H17.709ZM23.7323 24.068V29H22.9133V28.271C22.7573 28.523 22.5383 28.721 22.2563 28.865C21.9803 29.003 21.6743 29.072 21.3383 29.072C20.9543 29.072 20.6093 28.994 20.3033 28.838C19.9973 28.676 19.7543 28.436 19.5743 28.118C19.4003 27.8 19.3133 27.413 19.3133 26.957V24.068H20.1233V26.849C20.1233 27.335 20.2463 27.71 20.4923 27.974C20.7383 28.232 21.0743 28.361 21.5003 28.361C21.9383 28.361 22.2833 28.226 22.5353 27.956C22.7873 27.686 22.9133 27.293 22.9133 26.777V24.068H23.7323ZM25.4841 24.743V27.65C25.4841 27.89 25.5351 28.061 25.6371 28.163C25.7391 28.259 25.9161 28.307 26.1681 28.307H26.7711V29H26.0331C25.5771 29 25.2351 28.895 25.0071 28.685C24.7791 28.475 24.6651 28.13 24.6651 27.65V24.743H24.0261V24.068H24.6651V22.826H25.4841V24.068H26.7711V24.743H25.4841ZM29.2845 29.081C28.8225 29.081 28.4025 28.976 28.0245 28.766C27.6525 28.556 27.3585 28.259 27.1425 27.875C26.9325 27.485 26.8275 27.035 26.8275 26.525C26.8275 26.021 26.9355 25.577 27.1515 25.193C27.3735 24.803 27.6735 24.506 28.0515 24.302C28.4295 24.092 28.8525 23.987 29.3205 23.987C29.7885 23.987 30.2115 24.092 30.5895 24.302C30.9675 24.506 31.2645 24.8 31.4805 25.184C31.7025 25.568 31.8135 26.015 31.8135 26.525C31.8135 27.035 31.6995 27.485 31.4715 27.875C31.2495 28.259 30.9465 28.556 30.5625 28.766C30.1785 28.976 29.7525 29.081 29.2845 29.081ZM29.2845 28.361C29.5785 28.361 29.8545 28.292 30.1125 28.154C30.3705 28.016 30.5775 27.809 30.7335 27.533C30.8955 27.257 30.9765 26.921 30.9765 26.525C30.9765 26.129 30.8985 25.793 30.7425 25.517C30.5865 25.241 30.3825 25.037 30.1305 24.905C29.8785 24.767 29.6055 24.698 29.3115 24.698C29.0115 24.698 28.7355 24.767 28.4835 24.905C28.2375 25.037 28.0395 25.241 27.8895 25.517C27.7395 25.793 27.6645 26.129 27.6645 26.525C27.6645 26.927 27.7365 27.266 27.8805 27.542C28.0305 27.818 28.2285 28.025 28.4745 28.163C28.7205 28.295 28.9905 28.361 29.2845 28.361ZM33.7237 26.516C33.7237 26.012 33.8257 25.571 34.0297 25.193C34.2337 24.809 34.5127 24.512 34.8667 24.302C35.2267 24.092 35.6287 23.987 36.0727 23.987C36.4567 23.987 36.8137 24.077 37.1437 24.257C37.4737 24.431 37.7257 24.662 37.8997 24.95V22.34H38.7277V29H37.8997V28.073C37.7377 28.367 37.4977 28.61 37.1797 28.802C36.8617 28.988 36.4897 29.081 36.0637 29.081C35.6257 29.081 35.2267 28.973 34.8667 28.757C34.5127 28.541 34.2337 28.238 34.0297 27.848C33.8257 27.458 33.7237 27.014 33.7237 26.516ZM37.8997 26.525C37.8997 26.153 37.8247 25.829 37.6747 25.553C37.5247 25.277 37.3207 25.067 37.0627 24.923C36.8107 24.773 36.5317 24.698 36.2257 24.698C35.9197 24.698 35.6407 24.77 35.3887 24.914C35.1367 25.058 34.9357 25.268 34.7857 25.544C34.6357 25.82 34.5607 26.144 34.5607 26.516C34.5607 26.894 34.6357 27.224 34.7857 27.506C34.9357 27.782 35.1367 27.995 35.3887 28.145C35.6407 28.289 35.9197 28.361 36.2257 28.361C36.5317 28.361 36.8107 28.289 37.0627 28.145C37.3207 27.995 37.5247 27.782 37.6747 27.506C37.8247 27.224 37.8997 26.897 37.8997 26.525ZM43.9817 26.345C43.9817 26.501 43.9727 26.666 43.9547 26.84H40.0127C40.0427 27.326 40.2077 27.707 40.5077 27.983C40.8137 28.253 41.1827 28.388 41.6147 28.388C41.9687 28.388 42.2627 28.307 42.4967 28.145C42.7367 27.977 42.9047 27.755 43.0007 27.479H43.8828C43.7508 27.953 43.4867 28.34 43.0907 28.64C42.6947 28.934 42.2027 29.081 41.6147 29.081C41.1467 29.081 40.7267 28.976 40.3547 28.766C39.9887 28.556 39.7007 28.259 39.4907 27.875C39.2807 27.485 39.1757 27.035 39.1757 26.525C39.1757 26.015 39.2777 25.568 39.4817 25.184C39.6857 24.8 39.9707 24.506 40.3367 24.302C40.7087 24.092 41.1347 23.987 41.6147 23.987C42.0827 23.987 42.4967 24.089 42.8567 24.293C43.2167 24.497 43.4927 24.779 43.6847 25.139C43.8827 25.493 43.9817 25.895 43.9817 26.345ZM43.1357 26.174C43.1357 25.862 43.0667 25.595 42.9287 25.373C42.7907 25.145 42.6017 24.974 42.3617 24.86C42.1277 24.74 41.8667 24.68 41.5787 24.68C41.1647 24.68 40.8107 24.812 40.5167 25.076C40.2287 25.34 40.0637 25.706 40.0217 26.174H43.1357ZM50.3962 24.563C50.3962 25.085 50.2162 25.52 49.8562 25.868C49.5022 26.21 48.9592 26.381 48.2272 26.381H47.0212V29H46.2022V22.727H48.2272C48.9352 22.727 49.4722 22.898 49.8382 23.24C50.2102 23.582 50.3962 24.023 50.3962 24.563ZM48.2272 25.706C48.6832 25.706 49.0192 25.607 49.2352 25.409C49.4512 25.211 49.5592 24.929 49.5592 24.563C49.5592 23.789 49.1152 23.402 48.2272 23.402H47.0212V25.706H48.2272ZM52.5301 29.081C52.1521 29.081 51.8131 29.018 51.5131 28.892C51.2131 28.76 50.9761 28.58 50.8021 28.352C50.6281 28.118 50.5321 27.851 50.5141 27.551H51.3601C51.3841 27.797 51.4981 27.998 51.7021 28.154C51.9121 28.31 52.1851 28.388 52.5211 28.388C52.8331 28.388 53.0791 28.319 53.2591 28.181C53.4391 28.043 53.5291 27.869 53.5291 27.659C53.5291 27.443 53.4331 27.284 53.2411 27.182C53.0491 27.074 52.7521 26.969 52.3501 26.867C51.9841 26.771 51.6841 26.675 51.4501 26.579C51.2221 26.477 51.0241 26.33 50.8561 26.138C50.6941 25.94 50.6131 25.682 50.6131 25.364C50.6131 25.112 50.6881 24.881 50.8381 24.671C50.9881 24.461 51.2011 24.296 51.4771 24.176C51.7531 24.05 52.0681 23.987 52.4221 23.987C52.9681 23.987 53.4091 24.125 53.7451 24.401C54.0811 24.677 54.2611 25.055 54.2851 25.535H53.4661C53.4481 25.277 53.3431 25.07 53.1511 24.914C52.9651 24.758 52.7131 24.68 52.3951 24.68C52.1011 24.68 51.8671 24.743 51.6931 24.869C51.5191 24.995 51.4321 25.16 51.4321 25.364C51.4321 25.526 51.4831 25.661 51.5851 25.769C51.6931 25.871 51.8251 25.955 51.9811 26.021C52.1431 26.081 52.3651 26.15 52.6471 26.228C53.0011 26.324 53.2891 26.42 53.5111 26.516C53.7331 26.606 53.9221 26.744 54.0781 26.93C54.2401 27.116 54.3241 27.359 54.3301 27.659C54.3301 27.929 54.2551 28.172 54.1051 28.388C53.9551 28.604 53.7421 28.775 53.4661 28.901C53.1961 29.021 52.8841 29.081 52.5301 29.081ZM55.2793 23.267C55.1233 23.267 54.9913 23.213 54.8833 23.105C54.7753 22.997 54.7213 22.865 54.7213 22.709C54.7213 22.553 54.7753 22.421 54.8833 22.313C54.9913 22.205 55.1233 22.151 55.2793 22.151C55.4293 22.151 55.5553 22.205 55.6573 22.313C55.7653 22.421 55.8193 22.553 55.8193 22.709C55.8193 22.865 55.7653 22.997 55.6573 23.105C55.5553 23.213 55.4293 23.267 55.2793 23.267ZM55.6753 24.068V29H54.8563V24.068H55.6753ZM56.1351 26.525C56.1351 26.015 56.2371 25.571 56.4411 25.193C56.6451 24.809 56.9271 24.512 57.2871 24.302C57.6531 24.092 58.0701 23.987 58.5381 23.987C59.1441 23.987 59.6421 24.134 60.0321 24.428C60.4281 24.722 60.6891 25.13 60.8151 25.652H59.9331C59.8491 25.352 59.6841 25.115 59.4381 24.941C59.1981 24.767 58.8981 24.68 58.5381 24.68C58.0701 24.68 57.6921 24.842 57.4041 25.166C57.1161 25.484 56.9721 25.937 56.9721 26.525C56.9721 27.119 57.1161 27.578 57.4041 27.902C57.6921 28.226 58.0701 28.388 58.5381 28.388C58.8981 28.388 59.1981 28.304 59.4381 28.136C59.6781 27.968 59.8431 27.728 59.9331 27.416H60.8151C60.6831 27.92 60.4191 28.325 60.0231 28.631C59.6271 28.931 59.1321 29.081 58.5381 29.081C58.0701 29.081 57.6531 28.976 57.2871 28.766C56.9271 28.556 56.6451 28.259 56.4411 27.875C56.2371 27.491 56.1351 27.041 56.1351 26.525ZM63.4289 29.081C62.9669 29.081 62.5469 28.976 62.1689 28.766C61.7969 28.556 61.5029 28.259 61.2869 27.875C61.0769 27.485 60.9719 27.035 60.9719 26.525C60.9719 26.021 61.0799 25.577 61.2959 25.193C61.5179 24.803 61.8179 24.506 62.1959 24.302C62.5739 24.092 62.9969 23.987 63.4649 23.987C63.9329 23.987 64.3559 24.092 64.7339 24.302C65.1119 24.506 65.4089 24.8 65.6249 25.184C65.8469 25.568 65.9579 26.015 65.9579 26.525C65.9579 27.035 65.8439 27.485 65.6159 27.875C65.3939 28.259 65.0909 28.556 64.7069 28.766C64.3229 28.976 63.8969 29.081 63.4289 29.081ZM63.4289 28.361C63.7229 28.361 63.9989 28.292 64.2569 28.154C64.5149 28.016 64.7219 27.809 64.8779 27.533C65.0399 27.257 65.1209 26.921 65.1209 26.525C65.1209 26.129 65.0429 25.793 64.8869 25.517C64.7309 25.241 64.5269 25.037 64.2749 24.905C64.0229 24.767 63.7499 24.698 63.4559 24.698C63.1559 24.698 62.8799 24.767 62.6279 24.905C62.3819 25.037 62.1839 25.241 62.0339 25.517C61.8839 25.793 61.8089 26.129 61.8089 26.525C61.8089 26.927 61.8809 27.266 62.0249 27.542C62.1749 27.818 62.3729 28.025 62.6189 28.163C62.8649 28.295 63.1349 28.361 63.4289 28.361ZM67.2238 22.34V29H66.4048V22.34H67.2238ZM70.1406 29.081C69.6786 29.081 69.2586 28.976 68.8806 28.766C68.5086 28.556 68.2146 28.259 67.9986 27.875C67.7886 27.485 67.6836 27.035 67.6836 26.525C67.6836 26.021 67.7916 25.577 68.0076 25.193C68.2296 24.803 68.5296 24.506 68.9076 24.302C69.2856 24.092 69.7086 23.987 70.1766 23.987C70.6446 23.987 71.0676 24.092 71.4456 24.302C71.8236 24.506 72.1206 24.8 72.3366 25.184C72.5586 25.568 72.6696 26.015 72.6696 26.525C72.6696 27.035 72.5556 27.485 72.3276 27.875C72.1056 28.259 71.8026 28.556 71.4186 28.766C71.0346 28.976 70.6086 29.081 70.1406 29.081ZM70.1406 28.361C70.4346 28.361 70.7106 28.292 70.9686 28.154C71.2266 28.016 71.4336 27.809 71.5896 27.533C71.7516 27.257 71.8326 26.921 71.8326 26.525C71.8326 26.129 71.7546 25.793 71.5986 25.517C71.4426 25.241 71.2386 25.037 70.9866 24.905C70.7346 24.767 70.4616 24.698 70.1676 24.698C69.8676 24.698 69.5916 24.767 69.3396 24.905C69.0936 25.037 68.8956 25.241 68.7456 25.517C68.5956 25.793 68.5206 26.129 68.5206 26.525C68.5206 26.927 68.5926 27.266 68.7366 27.542C68.8866 27.818 69.0846 28.025 69.3306 28.163C69.5766 28.295 69.8466 28.361 70.1406 28.361ZM75.1504 23.987C75.5764 23.987 75.9484 24.08 76.2664 24.266C76.5904 24.452 76.8304 24.686 76.9864 24.968V24.068H77.8144V29.108C77.8144 29.558 77.7184 29.957 77.5264 30.305C77.3344 30.659 77.0584 30.935 76.6984 31.133C76.3444 31.331 75.9304 31.43 75.4564 31.43C74.8084 31.43 74.2684 31.277 73.8364 30.971C73.4044 30.665 73.1494 30.248 73.0714 29.72H73.8814C73.9714 30.02 74.1574 30.26 74.4394 30.44C74.7214 30.626 75.0604 30.719 75.4564 30.719C75.9064 30.719 76.2724 30.578 76.5544 30.296C76.8424 30.014 76.9864 29.618 76.9864 29.108V28.073C76.8244 28.361 76.5844 28.601 76.2664 28.793C75.9484 28.985 75.5764 29.081 75.1504 29.081C74.7124 29.081 74.3134 28.973 73.9534 28.757C73.5994 28.541 73.3204 28.238 73.1164 27.848C72.9124 27.458 72.8104 27.014 72.8104 26.516C72.8104 26.012 72.9124 25.571 73.1164 25.193C73.3204 24.809 73.5994 24.512 73.9534 24.302C74.3134 24.092 74.7124 23.987 75.1504 23.987ZM76.9864 26.525C76.9864 26.153 76.9114 25.829 76.7614 25.553C76.6114 25.277 76.4074 25.067 76.1494 24.923C75.8974 24.773 75.6184 24.698 75.3124 24.698C75.0064 24.698 74.7274 24.77 74.4754 24.914C74.2234 25.058 74.0224 25.268 73.8724 25.544C73.7224 25.82 73.6474 26.144 73.6474 26.516C73.6474 26.894 73.7224 27.224 73.8724 27.506C74.0224 27.782 74.2234 27.995 74.4754 28.145C74.7274 28.289 75.0064 28.361 75.3124 28.361C75.6184 28.361 75.8974 28.289 76.1494 28.145C76.4074 27.995 76.6114 27.782 76.7614 27.506C76.9114 27.224 76.9864 26.897 76.9864 26.525ZM78.9915 23.267C78.8355 23.267 78.7035 23.213 78.5955 23.105C78.4875 22.997 78.4335 22.865 78.4335 22.709C78.4335 22.553 78.4875 22.421 78.5955 22.313C78.7035 22.205 78.8355 22.151 78.9915 22.151C79.1415 22.151 79.2675 22.205 79.3695 22.313C79.4775 22.421 79.5315 22.553 79.5315 22.709C79.5315 22.865 79.4775 22.997 79.3695 23.105C79.2675 23.213 79.1415 23.267 78.9915 23.267ZM79.3875 24.068V29H78.5685V24.068H79.3875ZM79.8473 26.516C79.8473 26.012 79.9493 25.571 80.1533 25.193C80.3573 24.809 80.6363 24.512 80.9903 24.302C81.3503 24.092 81.7493 23.987 82.1873 23.987C82.6193 23.987 82.9943 24.08 83.3123 24.266C83.6303 24.452 83.8673 24.686 84.0233 24.968V24.068H84.8513V29H84.0233V28.082C83.8613 28.37 83.6183 28.61 83.2943 28.802C82.9763 28.988 82.6043 29.081 82.1783 29.081C81.7403 29.081 81.3443 28.973 80.9903 28.757C80.6363 28.541 80.3573 28.238 80.1533 27.848C79.9493 27.458 79.8473 27.014 79.8473 26.516ZM84.0233 26.525C84.0233 26.153 83.9483 25.829 83.7983 25.553C83.6483 25.277 83.4443 25.067 83.1863 24.923C82.9343 24.773 82.6553 24.698 82.3493 24.698C82.0433 24.698 81.7643 24.77 81.5123 24.914C81.2603 25.058 81.0593 25.268 80.9093 25.544C80.7593 25.82 80.6843 26.144 80.6843 26.516C80.6843 26.894 80.7593 27.224 80.9093 27.506C81.0593 27.782 81.2603 27.995 81.5123 28.145C81.7643 28.289 82.0433 28.361 82.3493 28.361C82.6553 28.361 82.9343 28.289 83.1863 28.145C83.4443 27.995 83.6483 27.782 83.7983 27.506C83.9483 27.224 84.0233 26.897 84.0233 26.525Z" fill="#222721"/>
</svg>
