<svg width="18" height="18" viewBox="0 0 18 18" fill="none" xmlns="http://www.w3.org/2000/svg">
<path d="M5.19997 17.1585C5.31988 17.2124 5.45619 17.217 5.5794 17.1711C5.70261 17.1252 5.8028 17.0327 5.85829 16.9135C5.91377 16.7943 5.92008 16.6581 5.87585 16.5343C5.83162 16.4105 5.74042 16.3091 5.62197 16.252C4.38642 15.6766 3.31839 14.7949 2.51921 13.6908C1.72003 12.5867 1.2162 11.2967 1.05552 9.94318C0.89484 8.58968 1.08264 7.21758 1.6011 5.95703C2.11957 4.69649 2.9515 3.58931 4.01797 2.74054L4.22447 3.00704C4.28281 3.08137 4.33864 3.15337 4.39197 3.22304C4.60147 3.49554 4.77097 3.73204 4.88447 3.94754C4.99847 4.16454 5.02797 4.30954 5.01847 4.40854C5.01097 4.48654 4.97447 4.59854 4.79347 4.74754L4.41997 5.05504C4.12497 5.29754 3.93997 5.60504 3.88847 5.94254C3.83797 6.27754 3.92647 6.60054 4.10447 6.86154C4.46147 7.38504 5.16097 7.65004 5.90797 7.45154C5.97364 7.43421 6.02347 7.42254 6.05747 7.41654C6.07747 7.44954 6.10247 7.49304 6.13847 7.55654L6.42547 8.19304L4.80347 8.72354C4.67865 8.76438 4.5631 8.82941 4.46341 8.91491C4.36371 9.00041 4.28184 9.10471 4.22246 9.22185C4.16307 9.33899 4.12734 9.46668 4.11731 9.59763C4.10728 9.72858 4.12313 9.86022 4.16397 9.98504C4.20481 10.1099 4.26984 10.2254 4.35534 10.3251C4.44084 10.4248 4.54514 10.5067 4.66228 10.5661C4.77942 10.6254 4.90711 10.6612 5.03806 10.6712C5.16901 10.6812 5.30065 10.6654 5.42547 10.6245L6.29147 10.341L7.04247 12.0625C7.11686 12.2331 7.23738 12.3796 7.39046 12.4854C7.54354 12.5912 7.72311 12.6522 7.90897 12.6615C9.44747 12.7385 10.637 12.1745 11.386 11.3755C11.754 10.9835 12.0185 10.5305 12.157 10.0705C12.291 9.62554 12.3305 9.08804 12.119 8.59254C12.0322 8.3892 11.8804 8.22037 11.6874 8.11244C11.4945 8.00451 11.2712 7.96358 11.0525 7.99604L10.3125 8.10604L9.94947 6.99304C9.91045 6.86614 9.84655 6.74828 9.76149 6.64633C9.67643 6.54439 9.57193 6.4604 9.45407 6.39927C9.33622 6.33814 9.20737 6.3011 9.07504 6.29029C8.94272 6.27948 8.80956 6.29513 8.68335 6.33633C8.55714 6.37753 8.44039 6.44345 8.33992 6.53024C8.23945 6.61703 8.15727 6.72296 8.09818 6.84185C8.03908 6.96074 8.00425 7.0902 7.99571 7.2227C7.98718 7.35519 8.00511 7.48805 8.04847 7.61354L8.67347 9.52854C8.74249 9.7405 8.88034 9.92332 9.06514 10.048C9.24994 10.1726 9.47109 10.232 9.69347 10.2165C9.43447 10.4115 9.07647 10.5785 8.60447 10.6415L7.76097 8.70804C7.74497 8.67132 7.72677 8.63558 7.70647 8.60104L7.03147 7.10454L7.01047 7.06754C6.96147 6.98054 6.90547 6.88104 6.84597 6.79754C6.76552 6.67792 6.65837 6.57864 6.53297 6.50754C6.23197 6.34454 5.90097 6.41804 5.65047 6.48504C5.27247 6.58554 5.02547 6.43754 4.93047 6.29804C4.88688 6.23879 4.86789 6.16497 4.87747 6.09204C4.88647 6.03104 4.92397 5.93504 5.05497 5.82704L5.42897 5.52004C5.77047 5.23904 5.97647 4.89804 6.01397 4.50204C6.04897 4.12704 5.92497 3.77754 5.76897 3.48204C5.61297 3.18404 5.39647 2.88904 5.18497 2.61354L4.99947 2.37454L4.83847 2.16754C6.42062 1.20383 8.28818 0.819086 10.1224 1.07897C11.9566 1.33885 13.6438 2.22725 14.896 3.59254C15.9654 4.75863 16.665 6.21566 16.9064 7.77937C17.1478 9.34309 16.92 10.9433 16.252 12.3775C16.2242 12.4371 16.2085 12.5015 16.2056 12.5671C16.2028 12.6327 16.2129 12.6982 16.2353 12.7599C16.2578 12.8216 16.2922 12.8783 16.3366 12.9267C16.381 12.9751 16.4344 13.0143 16.494 13.042C16.5535 13.0698 16.6179 13.0855 16.6835 13.0884C16.7491 13.0912 16.8146 13.0811 16.8763 13.0587C16.938 13.0362 16.9947 13.0018 17.0431 12.9574C17.0915 12.913 17.1307 12.8596 17.1585 12.8C17.91 11.1865 18.1662 9.38624 17.8946 7.62705C17.6231 5.86786 16.836 4.22871 15.6328 2.91687C14.4296 1.60503 12.8645 0.679424 11.1353 0.257101C9.40611 -0.165223 7.59051 -0.0652955 5.9181 0.544246C4.24569 1.15379 2.79159 2.24557 1.73967 3.68152C0.687751 5.11747 0.0852649 6.83311 0.00839787 8.61148C-0.0684692 10.3898 0.383735 12.1511 1.30783 13.6724C2.23192 15.1938 3.58639 16.407 5.19997 17.1585Z" fill="white"/>
<path d="M11.8935 7.70904C12.1158 7.82855 12.3596 7.90279 12.6108 7.92748C12.862 7.95217 13.1156 7.92681 13.3569 7.85287C13.5983 7.77893 13.8225 7.65788 14.0168 7.49671C14.2111 7.33555 14.3714 7.13747 14.4887 6.91393C14.6059 6.6904 14.6776 6.44584 14.6997 6.1944C14.7218 5.94296 14.6939 5.68964 14.6175 5.44907C14.5411 5.20851 14.4177 4.98548 14.2546 4.79289C14.0914 4.6003 13.8917 4.44196 13.667 4.32704C13.2191 4.09801 12.6989 4.05495 12.2195 4.20724C11.7401 4.35952 11.3401 4.69484 11.1065 5.14034C10.8729 5.58584 10.8245 6.10553 10.9718 6.5865C11.1192 7.06747 11.4504 7.47087 11.8935 7.70904ZM14.605 15.066C14.5875 14.9613 14.6123 14.8539 14.674 14.7674C14.7357 14.6809 14.8292 14.6225 14.934 14.605C15.0387 14.5875 15.1462 14.6124 15.2326 14.6741C15.3191 14.7358 15.3775 14.8293 15.395 14.934L15.6265 16.3265L15.9025 15.843C15.9374 15.7817 15.988 15.7307 16.049 15.6953C16.1101 15.6598 16.1794 15.6411 16.25 15.6411C16.3206 15.6411 16.3899 15.6598 16.4509 15.6953C16.512 15.7307 16.5625 15.7817 16.5975 15.843L16.8735 16.3265L17.1055 14.934C17.1238 14.8302 17.1825 14.7378 17.2686 14.677C17.3547 14.6162 17.4614 14.5918 17.5654 14.6092C17.6694 14.6266 17.7623 14.6843 17.8239 14.7699C17.8855 14.8555 17.9109 14.9619 17.8945 15.066L17.478 17.566C17.4644 17.6475 17.426 17.7228 17.3679 17.7815C17.3098 17.8403 17.235 17.8796 17.1537 17.8941C17.0724 17.9086 16.9886 17.8976 16.9138 17.8626C16.839 17.8276 16.7769 17.7703 16.736 17.6985L16.25 16.848L15.764 17.698C15.7231 17.7698 15.661 17.8271 15.5862 17.8621C15.5115 17.8972 15.4277 17.9082 15.3464 17.8938C15.2651 17.8793 15.1903 17.84 15.1322 17.7814C15.0741 17.7227 15.0356 17.6475 15.022 17.566L14.605 15.066ZM9.52297 15.493C9.58497 15.544 9.59997 15.593 9.59997 15.625C9.59997 15.6575 9.58497 15.7065 9.52297 15.757C9.4398 15.82 9.33772 15.8528 9.23347 15.85H8.72297C8.61689 15.85 8.51514 15.8922 8.44013 15.9672C8.36511 16.0422 8.32297 16.144 8.32297 16.25C8.32297 16.3561 8.36511 16.4579 8.44013 16.5329C8.51514 16.6079 8.61689 16.65 8.72297 16.65H9.23347C9.33772 16.6473 9.4398 16.6801 9.52297 16.743C9.58497 16.794 9.59997 16.843 9.59997 16.875C9.59997 16.9075 9.58497 16.9565 9.52297 17.007C9.4398 17.07 9.33772 17.1028 9.23347 17.1H8.72297C8.51497 17.1 8.39647 16.9925 8.36697 16.9245C8.34657 16.8756 8.31666 16.8313 8.27897 16.794C8.24129 16.7568 8.19657 16.7274 8.14743 16.7076C8.09829 16.6877 8.0457 16.6779 7.99271 16.6785C7.93973 16.6792 7.8874 16.6904 7.83878 16.7115C7.79016 16.7325 7.74621 16.7631 7.70948 16.8013C7.67275 16.8395 7.64397 16.8846 7.62482 16.934C7.60568 16.9834 7.59654 17.0361 7.59793 17.0891C7.59933 17.142 7.61124 17.1942 7.63297 17.2425C7.81397 17.6595 8.26297 17.9 8.72297 17.9H9.23347C9.79747 17.9 10.4 17.5135 10.4 16.875C10.4 16.6255 10.308 16.4145 10.1625 16.25C10.308 16.0855 10.4 15.8745 10.4 15.625C10.4 14.9865 9.79747 14.6 9.23347 14.6H8.72297C8.26297 14.6 7.81397 14.84 7.63297 15.2575C7.5925 15.3546 7.59186 15.4636 7.63119 15.5612C7.67052 15.6587 7.74666 15.7368 7.84313 15.7786C7.93961 15.8203 8.04866 15.8225 8.14669 15.7845C8.24472 15.7465 8.32386 15.6714 8.36697 15.5755C8.39697 15.5075 8.51497 15.4 8.72247 15.4H9.23347C9.33772 15.3973 9.4398 15.4301 9.52297 15.493ZM13.024 15.49C13.084 15.54 13.1 15.589 13.1 15.625C13.1 15.663 13.081 15.718 13.011 15.77L12.999 15.7795L11.249 17.1885C11.1845 17.2405 11.1377 17.3111 11.1151 17.3907C11.0925 17.4704 11.0952 17.5551 11.1227 17.6331C11.1502 17.7112 11.2013 17.7788 11.2689 17.8266C11.3365 17.8744 11.4172 17.9001 11.5 17.9H13.5C13.6061 17.9 13.7078 17.8579 13.7828 17.7829C13.8578 17.7079 13.9 17.6061 13.9 17.5C13.9 17.394 13.8578 17.2922 13.7828 17.2172C13.7078 17.1422 13.6061 17.1 13.5 17.1H12.635L13.496 16.4065C13.729 16.23 13.9 15.954 13.9 15.625C13.9 14.9935 13.314 14.6 12.75 14.6H12.25C11.7925 14.6 11.351 14.8445 11.1745 15.2605C11.154 15.3089 11.1432 15.3608 11.1427 15.4134C11.1423 15.4659 11.1522 15.518 11.1718 15.5667C11.1915 15.6154 11.2206 15.6598 11.2574 15.6972C11.2943 15.7347 11.3381 15.7645 11.3865 15.785C11.4348 15.8056 11.4868 15.8164 11.5393 15.8168C11.5918 15.8173 11.6439 15.8074 11.6926 15.7877C11.7413 15.768 11.7857 15.7389 11.8231 15.7021C11.8606 15.6652 11.8905 15.6214 11.911 15.573C11.9405 15.503 12.0545 15.4 12.25 15.4H12.75C12.8489 15.3976 12.9457 15.4294 13.024 15.49Z" fill="white"/>
</svg>
