<svg width="22" height="20" viewBox="0 0 22 20" fill="none" xmlns="http://www.w3.org/2000/svg">
<path d="M15.9979 5.12694C16.3193 5.04228 16.6533 4.99994 16.9999 4.99994C17.5686 5.00053 18.1306 5.12236 18.6485 5.35731C19.1663 5.59226 19.6281 5.93493 20.0031 6.36247C20.3781 6.79 20.6576 7.29257 20.8229 7.83666C20.9883 8.38075 21.0358 8.95385 20.9622 9.51773C20.8886 10.0816 20.6956 10.6233 20.396 11.1067C20.0965 11.5901 19.6974 12.0041 19.2252 12.321C18.7531 12.638 18.2188 12.8506 17.658 12.9448C17.0971 13.0389 16.5227 13.0124 15.9729 12.8669M15.9979 5.12694L15.9999 4.99994C16.0015 4.01199 15.6374 3.05842 14.9777 2.32294C14.3181 1.58746 13.4096 1.12212 12.4273 1.01656C11.445 0.911002 10.4584 1.1727 9.65757 1.75124C8.85673 2.32978 8.29833 3.18422 8.08994 4.14994M15.9979 5.12694C15.9773 5.78565 15.7942 6.42905 15.4649 6.99994M15.9729 12.8669C15.9909 12.7469 15.9999 12.6246 15.9999 12.4999C16.0001 11.9236 15.801 11.3649 15.4366 10.9185C15.0721 10.472 14.5646 10.1652 13.9999 10.0499M15.9729 12.8669C15.8849 13.4599 15.5868 14.0015 15.1329 14.393C14.6789 14.7846 14.0994 15 13.4999 14.9999H12.9999C11.9391 14.9999 10.9217 15.4214 10.1715 16.1715C9.42137 16.9217 8.99994 17.9391 8.99994 18.9999M8.08994 4.14994C7.40228 3.95468 6.67487 3.94727 5.98338 4.12847C5.29188 4.30967 4.66158 4.67287 4.15806 5.18027C3.65453 5.68768 3.29619 6.32074 3.1203 7.01361C2.94441 7.70647 2.9574 8.43381 3.15794 9.11994M8.08994 4.14994C9.09231 4.4338 9.94439 5.09752 10.4649 5.99994M3.15794 9.11994C2.46598 9.3235 1.87149 9.76947 1.48147 10.3762C1.09145 10.9829 0.932999 11.7098 1.03512 12.4238C1.13725 13.1379 1.49311 13.7912 2.03757 14.2643C2.58203 14.7374 3.27866 14.9985 3.99994 14.9999C4.62059 15.0003 5.22607 14.8081 5.73292 14.4499C6.23977 14.0917 6.62305 13.5851 6.82994 12.9999M3.15794 9.11994C3.24861 9.43128 3.37494 9.72461 3.53494 9.99994M10.8359 9.74394C10.3259 10.2349 9.45294 10.3199 8.70694 9.90094C7.96094 9.48094 7.57994 8.69094 7.73494 7.99994" stroke="white" stroke-width="1.5" stroke-linecap="round" stroke-linejoin="round"/>
</svg>
