<svg width="20" height="16" viewBox="0 0 20 16" fill="none" xmlns="http://www.w3.org/2000/svg">
<path d="M1.68997 5.12C1.60691 5.03088 1.50625 4.95997 1.39436 4.91177C1.28247 4.86358 1.1618 4.83914 1.03997 4.84C0.629971 4.84 0.31997 5.03 0.11997 5.42C-0.0800296 5.81 -0.0300295 6.18 0.289971 6.53C1.46997 7.59 2.21997 8.34 2.53997 8.78C2.94997 9.34 3.14997 10.16 3.14997 11.22C3.14997 12.53 3.64997 13.5 4.64997 14.17C5.20997 14.61 5.81997 14.94 6.49997 15.16V11.27C6.49997 10.33 6.16997 9.55 5.53997 8.92M14.46 8.97C13.84 9.59 13.5 10.36 13.5 11.27V15.2C14.46 14.86 15.26 14.33 15.92 13.63C16.57 12.93 16.9 12.16 16.9 11.22C16.9 10.09 17.09 9.28 17.47 8.78C17.56 8.62 17.73 8.42 18 8.17C18.23 7.92 18.47 7.68 18.71 7.46C18.94 7.25 19.17 7.03 19.39 6.81L19.72 6.53C19.8094 6.44504 19.8804 6.34262 19.9285 6.22908C19.9767 6.11555 20.001 5.99333 20 5.87C20 5.59 19.91 5.34 19.72 5.14C19.53 4.94 19.3 4.84 19 4.84C18.7 4.84 18.5 4.93 18.31 5.12M9.99997 16C10.69 16 11.36 15.91 12 15.72V12.15C12 11.56 11.82 11.1 11.41 10.66C11 10.22 10.53 10 9.99997 10C9.46997 10 8.99997 10.2 8.61997 10.61C8.21997 11 7.99997 11.46 7.99997 12.06V15.72C8.63997 15.91 9.30997 16 9.99997 16ZM6.99997 4.5C6.99997 5.33 6.32997 6 5.49997 6C4.66997 6 3.99997 5.33 3.99997 4.5C3.99997 3.67 4.66997 3 5.49997 3C6.32997 3 6.99997 3.67 6.99997 4.5ZM16 4.5C16 5.33 15.33 6 14.5 6C13.67 6 13 5.33 13 4.5C13 3.67 13.67 3 14.5 3C15.33 3 16 3.67 16 4.5ZM11.5 1.5C11.5 2.33 10.83 3 9.99997 3C9.16997 3 8.49997 2.33 8.49997 1.5C8.49997 0.67 9.16997 0 9.99997 0C10.83 0 11.5 0.67 11.5 1.5ZM11.5 7C11.5 7.83 10.83 8.5 9.99997 8.5C9.16997 8.5 8.49997 7.83 8.49997 7C8.49997 6.17 9.16997 5.5 9.99997 5.5C10.83 5.5 11.5 6.17 11.5 7Z" fill="white"/>
</svg>
