<svg width="17" height="18" viewBox="0 0 17 18" fill="none" xmlns="http://www.w3.org/2000/svg">
<path d="M9.99996 0C6.22996 0 3.18996 2.95 2.99996 6.66L1.07996 9.19C0.839961 9.5 1.07996 10 1.49996 10H2.99996V13C2.99996 14.11 3.88996 15 4.99996 15H5.99996V18H13V13.31C15.37 12.19 17 9.8 17 7C17 3.14 13.88 0 9.99996 0ZM14.06 6.57L12.1 7.09L13.54 8.54C13.7079 8.70867 13.8022 8.93699 13.8022 9.175C13.8022 9.41301 13.7079 9.64133 13.54 9.81C13.3713 9.97793 13.143 10.0722 12.905 10.0722C12.667 10.0722 12.4386 9.97793 12.27 9.81L10.81 8.37L10.3 10.33C10.18 10.82 9.67996 11.1 9.20996 10.97C9.09502 10.941 8.98703 10.8893 8.89234 10.818C8.79764 10.7466 8.71815 10.6571 8.65854 10.5546C8.59892 10.4522 8.56037 10.3388 8.54516 10.2213C8.52995 10.1037 8.53838 9.98427 8.56996 9.87L9.09996 7.9L7.12996 8.43C7.01569 8.46201 6.89616 8.47076 6.77845 8.45574C6.66073 8.44071 6.54723 8.40223 6.44466 8.34255C6.34209 8.28287 6.25254 8.20322 6.1813 8.10831C6.11007 8.0134 6.05861 7.90516 6.02996 7.79C5.89996 7.32 6.17996 6.82 6.66996 6.7L8.62996 6.19L7.18996 4.73C7.03952 4.55817 6.96002 4.33558 6.96759 4.10732C6.97515 3.87907 7.06921 3.66222 7.2307 3.50073C7.39219 3.33925 7.60903 3.24519 7.83728 3.23762C8.06554 3.23006 8.28814 3.30956 8.45996 3.46L9.90996 4.9L10.43 2.94C10.458 2.82761 10.508 2.72186 10.577 2.62882C10.646 2.53578 10.7327 2.45728 10.8321 2.39782C10.9315 2.33836 11.0417 2.29911 11.1563 2.28232C11.2709 2.26554 11.3877 2.27154 11.5 2.3C12 2.43 12.28 2.92 12.16 3.41L11.63 5.37L13.59 4.84C13.7062 4.81002 13.8272 4.80333 13.946 4.82032C14.0649 4.83731 14.1791 4.87764 14.2823 4.93898C14.3855 5.00033 14.4755 5.08148 14.5472 5.17777C14.6189 5.27405 14.6708 5.38356 14.7 5.5C14.7284 5.61229 14.7344 5.72909 14.7176 5.8437C14.7009 5.95831 14.6616 6.06848 14.6021 6.16789C14.5427 6.2673 14.4642 6.354 14.3711 6.423C14.2781 6.492 14.1724 6.54196 14.06 6.57Z" fill="white"/>
</svg>
